<svg width="24" height="24" viewBox="0 0 24 24" fill="none" xmlns="http://www.w3.org/2000/svg">
<path d="M14.0395 14.8625L13.1535 17.9615C12.8215 19.1215 11.1775 19.1215 10.8455 17.9615L9.96052 14.8625C9.90449 14.6665 9.79943 14.488 9.65526 14.3438C9.51109 14.1996 9.33256 14.0946 9.13652 14.0385L6.03752 13.1535C4.87752 12.8215 4.87752 11.1775 6.03752 10.8455L9.13652 9.96052C9.33256 9.90449 9.51109 9.79943 9.65526 9.65526C9.79943 9.51109 9.90449 9.33256 9.96052 9.13652L10.8455 6.03752C11.1775 4.87752 12.8215 4.87752 13.1535 6.03752L14.0385 9.13652C14.0946 9.33256 14.1996 9.51109 14.3438 9.65526C14.488 9.79943 14.6665 9.90449 14.8625 9.96052L17.9615 10.8455C19.1215 11.1775 19.1215 12.8215 17.9615 13.1535L14.8625 14.0385C14.6665 14.0946 14.488 14.1996 14.3438 14.3438C14.1996 14.488 14.0946 14.6665 14.0385 14.8625M19.5695 19.7155L19.1935 21.2235C19.1435 21.4255 18.8565 21.4255 18.8055 21.2235L18.4285 19.7155C18.4197 19.6805 18.4015 19.6486 18.376 19.623C18.3505 19.5975 18.3185 19.5794 18.2835 19.5705L16.7755 19.1935C16.5735 19.1435 16.5735 18.8565 16.7755 18.8055L18.2835 18.4285C18.3185 18.4197 18.3505 18.4015 18.376 18.376C18.4015 18.3505 18.4197 18.3185 18.4285 18.2835L18.8055 16.7755C18.8555 16.5735 19.1425 16.5735 19.1935 16.7755L19.5705 18.2835C19.5794 18.3185 19.5975 18.3505 19.623 18.376C19.6486 18.4015 19.6805 18.4197 19.7155 18.4285L21.2235 18.8055C21.4255 18.8555 21.4255 19.1425 21.2235 19.1935L19.7155 19.5705C19.6805 19.5794 19.6486 19.5975 19.623 19.623C19.5975 19.6486 19.5784 19.6805 19.5695 19.7155ZM5.56952 5.71552L5.19352 7.22352C5.14352 7.42552 4.85552 7.42552 4.80552 7.22352L4.42852 5.71552C4.41969 5.68052 4.40155 5.64855 4.37602 5.62303C4.35049 5.5975 4.31853 5.57935 4.28352 5.57052L2.77552 5.19352C2.57352 5.14352 2.57352 4.85552 2.77552 4.80552L4.28352 4.42852C4.31853 4.41969 4.35049 4.40155 4.37602 4.37602C4.40155 4.35049 4.41969 4.31853 4.42852 4.28352L4.80552 2.77552C4.85552 2.57352 5.14352 2.57352 5.19352 2.77552L5.57052 4.28352C5.57935 4.31853 5.5975 4.35049 5.62303 4.37602C5.64855 4.40155 5.68052 4.41969 5.71552 4.42852L7.22352 4.80552C7.42552 4.85552 7.42552 5.14352 7.22352 5.19352L5.71552 5.57052C5.68052 5.57935 5.64855 5.5975 5.62303 5.62303C5.5975 5.64855 5.57836 5.68052 5.56952 5.71552Z" stroke="#A2A2A2" stroke-width="1.5" stroke-miterlimit="10" stroke-linecap="round" stroke-linejoin="round"/>
</svg>
