<svg width="28" height="29" viewBox="0 0 28 29" fill="none" xmlns="http://www.w3.org/2000/svg">
<path d="M23.8237 12.5037C23.9874 12.5167 24.1469 12.5618 24.2932 12.6364C24.4394 12.711 24.5695 12.8137 24.6761 12.9386C24.7827 13.0635 24.8636 13.2081 24.9142 13.3643C24.9649 13.5205 24.9842 13.6851 24.9712 13.8488C24.5225 19.5625 18.9225 23.75 12.5 23.75C11.685 23.75 10.8888 23.68 10.1163 23.5538L9.97375 23.665C9.83539 23.7768 9.69366 23.8843 9.54875 23.9875C8.83875 24.4875 7.81125 25 6.25 25C5.91848 25 5.60054 24.8683 5.36612 24.6339C5.1317 24.3995 5 24.0815 5 23.75C5 23.2638 5.0575 22.8225 5.01125 22.2137C5.00084 22.0085 4.96515 21.8053 4.905 21.6088C4.89417 21.5821 4.885 21.5621 4.8775 21.5487C1.97 19.6475 0 16.62 0 13.125C0 7.05375 5.82 2.5 12.5 2.5C12.9608 2.5 13.4158 2.52083 13.865 2.5625C14.1952 2.593 14.4997 2.75342 14.7117 3.00847C14.9236 3.26352 15.0255 3.59231 14.995 3.9225C14.9645 4.2527 14.8041 4.55725 14.549 4.76917C14.294 4.98108 13.9652 5.083 13.635 5.0525C13.2577 5.01781 12.8789 5.00029 12.5 5C6.75375 5 2.5 8.84125 2.5 13.125C2.5 15.6425 3.9275 17.965 6.3025 19.4963C6.83625 19.84 7.1125 20.355 7.26125 20.7713C7.41125 21.1963 7.47375 21.6438 7.50375 22.025C7.50875 22.105 7.51208 22.1871 7.51375 22.2712C7.75125 22.1737 7.94375 22.0588 8.1075 21.9425C8.21455 21.8666 8.31919 21.7874 8.42125 21.705C8.5175 21.63 8.64875 21.5225 8.77125 21.435C8.94625 21.31 9.4425 20.9513 10.0988 21.0188L10.2313 21.04L10.7837 21.13C11.3404 21.21 11.9125 21.25 12.5 21.25C18.0025 21.25 22.1588 17.7113 22.4788 13.65C22.5052 13.3197 22.6618 13.0134 22.914 12.7984C23.1662 12.5835 23.4934 12.4775 23.8237 12.5037ZM22.5 4.01798e-07C22.7607 0.000104436 23.0149 0.0817432 23.227 0.233487C23.439 0.385231 23.5983 0.599484 23.6825 0.84625L23.845 1.31875C24.22 2.4175 25.0825 3.28125 26.1825 3.65625L26.6537 3.8175C26.9002 3.90197 27.1142 4.06135 27.2656 4.27337C27.4171 4.48538 27.4985 4.73944 27.4985 5C27.4985 5.26056 27.4171 5.51462 27.2656 5.72663C27.1142 5.93865 26.9002 6.09803 26.6537 6.1825L26.1812 6.345C25.0825 6.72 24.2188 7.5825 23.8438 8.6825L23.6825 9.15375C23.598 9.40024 23.4387 9.61418 23.2266 9.76565C23.0146 9.91712 22.7606 9.99854 22.5 9.99854C22.2394 9.99854 21.9854 9.91712 21.7734 9.76565C21.5613 9.61418 21.402 9.40024 21.3175 9.15375L21.155 8.68125C20.9699 8.13893 20.6629 7.64624 20.2577 7.24103C19.8525 6.83583 19.3598 6.52887 18.8175 6.34375L18.3463 6.1825C18.0998 6.09803 17.8858 5.93865 17.7344 5.72663C17.5829 5.51462 17.5015 5.26056 17.5015 5C17.5015 4.73944 17.5829 4.48538 17.7344 4.27337C17.8858 4.06135 18.0998 3.90197 18.3463 3.8175L18.8188 3.655C19.9175 3.28 20.7812 2.4175 21.1562 1.3175L21.3175 0.84625L21.395 0.66375C21.5015 0.46317 21.6607 0.295397 21.8553 0.178455C22.05 0.0615121 22.2729 -0.000181662 22.5 4.01798e-07ZM22.5 3.995C22.2043 4.36713 21.8671 4.7043 21.495 5C21.8692 5.29583 22.2042 5.63042 22.5 6.00375C22.7967 5.63125 23.1312 5.29667 23.5037 5C23.1321 4.70423 22.7953 4.36705 22.5 3.995Z" fill="white"/>
</svg>
