<svg width="30" height="30" viewBox="0 0 30 30" fill="none" xmlns="http://www.w3.org/2000/svg">
<rect width="30" height="30" rx="15" fill="#FF9500"/>
<g clip-path="url(#clip0_704_5449)">
<path d="M16.0125 16.0707L17.6 14.5019L18.7 14.7957C18.8692 14.8352 19.0459 14.8289 19.2118 14.7772C19.3777 14.7256 19.5269 14.6305 19.6437 14.5019C19.7582 14.3791 19.8396 14.2292 19.88 14.0663C19.9205 13.9033 19.9188 13.7327 19.875 13.5707L19.5812 12.4769L20.0937 12.0019L21.1937 12.2957C21.3629 12.3352 21.5396 12.3289 21.7056 12.2772C21.8715 12.2256 22.0206 12.1305 22.1375 12.0019C22.252 11.8804 22.3339 11.7318 22.3755 11.57C22.417 11.4083 22.4168 11.2386 22.375 11.0769L22.0812 9.98316C22.2217 9.84736 22.3337 9.68495 22.4107 9.5054C22.4878 9.32586 22.5283 9.13277 22.5299 8.9374C22.5316 8.74203 22.4943 8.54829 22.4203 8.36747C22.3463 8.18665 22.237 8.02238 22.0989 7.88423C21.9607 7.74608 21.7965 7.63681 21.6156 7.5628C21.4348 7.4888 21.2411 7.45153 21.0457 7.45318C20.8503 7.45482 20.6573 7.49535 20.4777 7.57239C20.2982 7.64944 20.1358 7.76145 20 7.90191L13.9312 13.9894C13.0913 13.6326 12.1534 13.5791 11.2784 13.8381C10.4034 14.0971 9.64569 14.6525 9.1353 15.4089C8.6249 16.1654 8.39357 17.0759 8.48097 17.9842C8.56837 18.8926 8.96906 19.7423 9.61433 20.3875C10.2596 21.0328 11.1093 21.4335 12.0176 21.5209C12.926 21.6083 13.8365 21.377 14.5929 20.8666C15.3494 20.3562 15.9047 19.5985 16.1637 18.7235C16.4227 17.8485 16.3693 16.9106 16.0125 16.0707Z" stroke="white" stroke-width="1.5" stroke-linecap="round" stroke-linejoin="round"/>
<path d="M10.6621 18.1523C10.6621 18.3083 10.6928 18.4627 10.7525 18.6068C10.8122 18.7509 10.8997 18.8818 11.0099 18.992C11.1202 19.1023 11.2511 19.1898 11.3952 19.2495C11.5392 19.3091 11.6937 19.3398 11.8496 19.3398C12.0056 19.3398 12.16 19.3091 12.304 19.2495C12.4481 19.1898 12.579 19.1023 12.6893 18.992C12.7996 18.8818 12.887 18.7509 12.9467 18.6068C13.0064 18.4627 13.0371 18.3083 13.0371 18.1523C13.0371 17.8374 12.912 17.5354 12.6893 17.3127C12.4666 17.09 12.1646 16.9648 11.8496 16.9648C11.5347 16.9648 11.2326 17.09 11.0099 17.3127C10.7872 17.5354 10.6621 17.8374 10.6621 18.1523Z" stroke="white" stroke-width="1.5" stroke-linecap="round" stroke-linejoin="round"/>
</g>
<defs>
<clipPath id="clip0_704_5449">
<rect width="15" height="15" fill="white" transform="translate(8 7)"/>
</clipPath>
</defs>
</svg>
