<svg width="30" height="30" viewBox="0 0 30 30" fill="none" xmlns="http://www.w3.org/2000/svg">
<rect width="30" height="30" rx="15" fill="#FF0000"/>
<path d="M11.125 10.125H14.875C15.2188 10.125 15.5 9.84375 15.5 9.5C15.5 9.15625 15.2188 8.875 14.875 8.875H11.125C10.4375 8.875 9.875 9.4375 9.875 10.125V18.875C9.875 19.5625 10.4375 20.125 11.125 20.125H14.875C15.2188 20.125 15.5 19.8438 15.5 19.5C15.5 19.1562 15.2188 18.875 14.875 18.875H11.125V10.125Z" fill="white"/>
<path d="M20.9062 14.2799L19.1625 12.5361C19.119 12.4915 19.0632 12.4608 19.0022 12.448C18.9412 12.4353 18.8778 12.441 18.8201 12.4645C18.7624 12.488 18.713 12.5282 18.6782 12.5799C18.6435 12.6316 18.6249 12.6926 18.625 12.7549V13.8736H14.25C13.9062 13.8736 13.625 14.1549 13.625 14.4986C13.625 14.8424 13.9062 15.1236 14.25 15.1236H18.625V16.2424C18.625 16.5236 18.9625 16.6611 19.1562 16.4611L20.9 14.7174C21.025 14.5986 21.025 14.3986 20.9062 14.2799Z" fill="white"/>
</svg>
