<svg width="30" height="30" viewBox="0 0 30 30" fill="none" xmlns="http://www.w3.org/2000/svg">
<rect width="30" height="30" rx="15" fill="#2288FD"/>
<path d="M10.5 12C10.3674 12 10.2402 12.0527 10.1464 12.1464C10.0527 12.2402 10 12.3674 10 12.5C10 12.6326 10.0527 12.7598 10.1464 12.8536C10.2402 12.9473 10.3674 13 10.5 13H17.5C17.6326 13 17.7598 12.9473 17.8536 12.8536C17.9473 12.7598 18 12.6326 18 12.5C18 12.3674 17.9473 12.2402 17.8536 12.1464C17.7598 12.0527 17.6326 12 17.5 12H10.5ZM10.5 14C10.3674 14 10.2402 14.0527 10.1464 14.1464C10.0527 14.2402 10 14.3674 10 14.5V16.5C10 16.6326 10.0527 16.7598 10.1464 16.8536C10.2402 16.9473 10.3674 17 10.5 17H12.5C12.6326 17 12.7598 16.9473 12.8536 16.8536C12.9473 16.7598 13 16.6326 13 16.5V14.5C13 14.3674 12.9473 14.2402 12.8536 14.1464C12.7598 14.0527 12.6326 14 12.5 14H10.5ZM11 16V15H12V16H11ZM14.5 14C14.3674 14 14.2402 14.0527 14.1464 14.1464C14.0527 14.2402 14 14.3674 14 14.5C14 14.6326 14.0527 14.7598 14.1464 14.8536C14.2402 14.9473 14.3674 15 14.5 15H17.5C17.6326 15 17.7598 14.9473 17.8536 14.8536C17.9473 14.7598 18 14.6326 18 14.5C18 14.3674 17.9473 14.2402 17.8536 14.1464C17.7598 14.0527 17.6326 14 17.5 14H14.5ZM14.5 16C14.3674 16 14.2402 16.0527 14.1464 16.1464C14.0527 16.2402 14 16.3674 14 16.5C14 16.6326 14.0527 16.7598 14.1464 16.8536C14.2402 16.9473 14.3674 17 14.5 17H17.5C17.6326 17 17.7598 16.9473 17.8536 16.8536C17.9473 16.7598 18 16.6326 18 16.5C18 16.3674 17.9473 16.2402 17.8536 16.1464C17.7598 16.0527 17.6326 16 17.5 16H14.5ZM8 11C8 10.4696 8.21071 9.96086 8.58579 9.58579C8.96086 9.21071 9.46957 9 10 9H18C18.5304 9 19.0391 9.21071 19.4142 9.58579C19.7893 9.96086 20 10.4696 20 11C20.5304 11 21.0391 11.2107 21.4142 11.5858C21.7893 11.9609 22 12.4696 22 13V17.5C22 18.163 21.7366 18.7989 21.2678 19.2678C20.7989 19.7366 20.163 20 19.5 20H10.5C9.83696 20 9.20107 19.7366 8.73223 19.2678C8.26339 18.7989 8 18.163 8 17.5V11ZM19.5 17.5C19.3674 17.5 19.2402 17.4473 19.1464 17.3536C19.0527 17.2598 19 17.1326 19 17V11C19 10.7348 18.8946 10.4804 18.7071 10.2929C18.5196 10.1054 18.2652 10 18 10H10C9.73478 10 9.48043 10.1054 9.29289 10.2929C9.10536 10.4804 9 10.7348 9 11V17.5C9 17.8978 9.15804 18.2794 9.43934 18.5607C9.72064 18.842 10.1022 19 10.5 19H19.5C19.8978 19 20.2794 18.842 20.5607 18.5607C20.842 18.2794 21 17.8978 21 17.5V13C21 12.7348 20.8946 12.4804 20.7071 12.2929C20.5196 12.1054 20.2652 12 20 12V17C20 17.1326 19.9473 17.2598 19.8536 17.3536C19.7598 17.4473 19.6326 17.5 19.5 17.5Z" fill="white"/>
</svg>
