<svg width="30" height="30" viewBox="0 0 30 30" fill="none" xmlns="http://www.w3.org/2000/svg">
<rect width="30" height="30" rx="15" fill="#FF0044"/>
<path d="M8.33301 19.9974C8.33301 19.1133 8.6842 18.2655 9.30932 17.6404C9.93444 17.0153 10.7823 16.6641 11.6663 16.6641H18.333C19.2171 16.6641 20.0649 17.0153 20.69 17.6404C21.3152 18.2655 21.6663 19.1133 21.6663 19.9974C21.6663 20.4394 21.4907 20.8633 21.1782 21.1759C20.8656 21.4885 20.4417 21.6641 19.9997 21.6641H9.99967C9.55765 21.6641 9.13372 21.4885 8.82116 21.1759C8.5086 20.8633 8.33301 20.4394 8.33301 19.9974Z" stroke="white" stroke-width="1.66667" stroke-linejoin="round"/>
<path d="M15 13.332C16.3807 13.332 17.5 12.2127 17.5 10.832C17.5 9.45132 16.3807 8.33203 15 8.33203C13.6193 8.33203 12.5 9.45132 12.5 10.832C12.5 12.2127 13.6193 13.332 15 13.332Z" stroke="white" stroke-width="1.66667"/>
</svg>
