<svg width="30" height="30" viewBox="0 0 30 30" fill="none" xmlns="http://www.w3.org/2000/svg">
<rect width="30" height="30" rx="15" fill="#FF2D55"/>
<path d="M12 16H16V17H12V16ZM12 13.5H18V14.5H12V13.5ZM12 18.5H14.5V19.5H12V18.5Z" fill="white"/>
<path d="M19.5 9.5H18V9C18 8.73478 17.8946 8.48043 17.7071 8.29289C17.5196 8.10536 17.2652 8 17 8H13C12.7348 8 12.4804 8.10536 12.2929 8.29289C12.1054 8.48043 12 8.73478 12 9V9.5H10.5C10.2348 9.5 9.98043 9.60536 9.79289 9.79289C9.60536 9.98043 9.5 10.2348 9.5 10.5V21C9.5 21.2652 9.60536 21.5196 9.79289 21.7071C9.98043 21.8946 10.2348 22 10.5 22H19.5C19.7652 22 20.0196 21.8946 20.2071 21.7071C20.3946 21.5196 20.5 21.2652 20.5 21V10.5C20.5 10.2348 20.3946 9.98043 20.2071 9.79289C20.0196 9.60536 19.7652 9.5 19.5 9.5ZM13 9H17V11H13V9ZM19.5 21H10.5V10.5H12V12H18V10.5H19.5V21Z" fill="white"/>
</svg>
