<svg width="30" height="30" viewBox="0 0 30 30" fill="none" xmlns="http://www.w3.org/2000/svg">
<rect width="30" height="30" rx="15" fill="#00BFFF"/>
<path d="M18.1997 9.20156C18.1997 9.04243 18.2629 8.88982 18.3755 8.7773C18.488 8.66478 18.6406 8.60156 18.7997 8.60156H20.7997C20.9589 8.60156 21.1115 8.66478 21.224 8.7773C21.3365 8.88982 21.3997 9.04243 21.3997 9.20156V11.2016C21.3997 11.3607 21.3365 11.5133 21.224 11.6258C21.1115 11.7383 20.9589 11.8016 20.7997 11.8016C20.6406 11.8016 20.488 11.7383 20.3755 11.6258C20.2629 11.5133 20.1997 11.3607 20.1997 11.2016V10.6496L16.6237 14.2256C16.5112 14.3379 16.3587 14.401 16.1997 14.401C16.0407 14.401 15.8882 14.3379 15.7757 14.2256L13.7997 12.2496L10.4237 15.6256C10.3688 15.6845 10.3026 15.7318 10.229 15.7646C10.1554 15.7974 10.0759 15.815 9.99535 15.8164C9.91479 15.8179 9.83476 15.803 9.76005 15.7729C9.68534 15.7427 9.61748 15.6978 9.5605 15.6408C9.50353 15.5838 9.45861 15.516 9.42843 15.4412C9.39826 15.3665 9.38344 15.2865 9.38486 15.2059C9.38628 15.1254 9.40391 15.0459 9.43671 14.9723C9.4695 14.8987 9.51678 14.8325 9.57573 14.7776L13.3757 10.9776C13.4882 10.8652 13.6407 10.8021 13.7997 10.8021C13.9587 10.8021 14.1112 10.8652 14.2237 10.9776L16.1997 12.9536L19.3517 9.80156H18.7997C18.6406 9.80156 18.488 9.73835 18.3755 9.62583C18.2629 9.5133 18.1997 9.36069 18.1997 9.20156ZM9.99973 18.2016C10.1589 18.2016 10.3115 18.2648 10.424 18.3773C10.5365 18.4898 10.5997 18.6424 10.5997 18.8016V20.8016C10.5997 20.9607 10.5365 21.1133 10.424 21.2258C10.3115 21.3383 10.1589 21.4016 9.99973 21.4016C9.8406 21.4016 9.68799 21.3383 9.57547 21.2258C9.46295 21.1133 9.39973 20.9607 9.39973 20.8016V18.8016C9.39973 18.6424 9.46295 18.4898 9.57547 18.3773C9.68799 18.2648 9.8406 18.2016 9.99973 18.2016ZM13.7997 16.4016C13.7997 16.2424 13.7365 16.0898 13.624 15.9773C13.5115 15.8648 13.3589 15.8016 13.1997 15.8016C13.0406 15.8016 12.888 15.8648 12.7755 15.9773C12.6629 16.0898 12.5997 16.2424 12.5997 16.4016V20.8016C12.5997 20.9607 12.6629 21.1133 12.7755 21.2258C12.888 21.3383 13.0406 21.4016 13.1997 21.4016C13.3589 21.4016 13.5115 21.3383 13.624 21.2258C13.7365 21.1133 13.7997 20.9607 13.7997 20.8016V16.4016ZM16.3997 17.4016C16.5589 17.4016 16.7115 17.4648 16.824 17.5773C16.9365 17.6898 16.9997 17.8424 16.9997 18.0016V20.8016C16.9997 20.9607 16.9365 21.1133 16.824 21.2258C16.7115 21.3383 16.5589 21.4016 16.3997 21.4016C16.2406 21.4016 16.088 21.3383 15.9755 21.2258C15.8629 21.1133 15.7997 20.9607 15.7997 20.8016V18.0016C15.7997 17.8424 15.8629 17.6898 15.9755 17.5773C16.088 17.4648 16.2406 17.4016 16.3997 17.4016ZM20.1997 14.8016C20.1997 14.6424 20.1365 14.4898 20.024 14.3773C19.9115 14.2648 19.7589 14.2016 19.5997 14.2016C19.4406 14.2016 19.288 14.2648 19.1755 14.3773C19.0629 14.4898 18.9997 14.6424 18.9997 14.8016V20.8016C18.9997 20.9607 19.0629 21.1133 19.1755 21.2258C19.288 21.3383 19.4406 21.4016 19.5997 21.4016C19.7589 21.4016 19.9115 21.3383 20.024 21.2258C20.1365 21.1133 20.1997 20.9607 20.1997 20.8016V14.8016Z" fill="white"/>
</svg>
