<svg width="12" height="12" viewBox="0 0 12 12" fill="none" xmlns="http://www.w3.org/2000/svg">
<g clip-path="url(#clip0_1037_1639)">
<path d="M10.0004 6.99993C10.1279 7.00007 10.2504 7.04887 10.3431 7.13635C10.4358 7.22384 10.4915 7.34341 10.499 7.47063C10.5065 7.59785 10.4651 7.72312 10.3833 7.82085C10.3015 7.91857 10.1855 7.98138 10.0589 7.99643L10.0004 7.99993H3.20742L4.35392 9.14643C4.4436 9.23641 4.49566 9.35715 4.49954 9.48412C4.50341 9.6111 4.45882 9.73479 4.3748 9.83007C4.29078 9.92535 4.17365 9.98508 4.04719 9.99713C3.92072 10.0092 3.79442 9.97264 3.69392 9.89493L3.64692 9.85343L1.73192 7.93843C1.39942 7.60643 1.61242 7.04693 2.06342 7.00293L2.12092 6.99993H10.0004ZM7.64692 2.14643C7.73302 2.06034 7.84757 2.00863 7.96908 2.00099C8.09059 1.99335 8.21072 2.03031 8.30692 2.10493L8.35392 2.14643L10.2689 4.06143C10.6014 4.39343 10.3884 4.95293 9.93742 4.99693L9.87992 4.99993H2.00042C1.87298 4.99979 1.75041 4.95099 1.65774 4.86351C1.56507 4.77602 1.50931 4.65645 1.50184 4.52923C1.49437 4.40201 1.53576 4.27674 1.61756 4.17901C1.69935 4.08129 1.81537 4.01848 1.94192 4.00343L2.00042 3.99993H8.79342L7.64692 2.85343C7.55319 2.75967 7.50053 2.63251 7.50053 2.49993C7.50053 2.36735 7.55319 2.24019 7.64692 2.14643Z" fill="#1F77B4"/>
</g>
<defs>
<clipPath id="clip0_1037_1639">
<rect width="12" height="12" fill="white"/>
</clipPath>
</defs>
</svg>
