<svg width="30" height="30" viewBox="0 0 30 30" fill="none" xmlns="http://www.w3.org/2000/svg">
<rect width="30" height="30" rx="15" fill="#5856D6"/>
<path fill-rule="evenodd" clip-rule="evenodd" d="M20.1997 13.7854C19.993 11.6654 18.7397 8.33203 14.8664 8.33203C10.993 8.33203 9.73968 11.6654 9.53302 13.7854C8.80802 14.0605 8.32981 14.7566 8.33302 15.532V16.4654C8.33302 17.4963 9.16877 18.332 10.1997 18.332C11.2306 18.332 12.0664 17.4963 12.0664 16.4654V15.532C12.063 14.7733 11.6024 14.0916 10.8997 13.8054C11.033 12.5787 11.6864 9.66537 14.8664 9.66537C18.0464 9.66537 18.693 12.5787 18.8264 13.8054C18.1251 14.0922 17.6668 14.7744 17.6664 15.532V16.4654C17.6678 16.8166 17.7679 17.1604 17.9554 17.4574C18.1428 17.7545 18.41 17.9929 18.7264 18.1454C18.4464 18.672 17.733 19.3854 15.9797 19.5987C15.6292 19.0665 14.9511 18.8567 14.3613 19.098C13.7715 19.3392 13.4349 19.9641 13.5579 20.5894C13.6809 21.2146 14.2291 21.6654 14.8664 21.6654C15.1133 21.664 15.355 21.5941 15.5645 21.4634C15.774 21.3328 15.9431 21.1465 16.053 20.9254C18.913 20.5987 19.8264 19.1254 20.113 18.2587C20.8886 18.0075 21.4101 17.2805 21.3997 16.4654V15.532C21.4029 14.7566 20.9247 14.0605 20.1997 13.7854ZM10.733 16.4654C10.733 16.7599 10.4942 16.9987 10.1997 16.9987C9.90512 16.9987 9.66637 16.7599 9.66637 16.4654V15.532C9.66583 15.4616 9.67923 15.3919 9.70579 15.3267C9.73235 15.2615 9.77155 15.2022 9.82112 15.1523C9.8707 15.1023 9.92968 15.0627 9.99465 15.0356C10.0596 15.0085 10.1293 14.9946 10.1997 14.9946C10.2701 14.9946 10.3398 15.0085 10.4047 15.0356C10.4697 15.0627 10.5287 15.1023 10.5783 15.1523C10.6278 15.2022 10.667 15.2615 10.6936 15.3267C10.7202 15.3919 10.7336 15.4616 10.733 15.532V16.4654ZM18.9997 15.532C18.9997 15.2375 19.2385 14.9987 19.533 14.9987C19.8276 14.9987 20.0664 15.2375 20.0664 15.532V16.4654C20.0664 16.7599 19.8276 16.9987 19.533 16.9987C19.2385 16.9987 18.9997 16.7599 18.9997 16.4654V15.532Z" fill="white"/>
</svg>
