<svg width="30" height="30" viewBox="0 0 30 30" fill="none" xmlns="http://www.w3.org/2000/svg">
<rect width="30" height="30" rx="15" fill="#3CC700"/>
<path d="M19.3556 7.50013C19.2568 7.50268 19.1585 7.51588 19.0625 7.53951L8.90625 10.2145C8.50481 10.3208 8.14954 10.5563 7.89536 10.8847C7.64118 11.2131 7.50224 11.6161 7.5 12.0314V20.6251C7.5 21.6533 8.34688 22.5001 9.375 22.5001H20.625C21.6531 22.5001 22.5 21.6533 22.5 20.6251V12.5001C22.5 11.472 21.6531 10.6251 20.625 10.6251H12.2656L19.375 8.75013V10.0001H20.625V8.75013C20.625 8.04701 20.0269 7.49013 19.3556 7.50013ZM9.375 11.8751H20.625C20.9788 11.8751 21.25 12.1464 21.25 12.5001V20.6251C21.25 20.9789 20.9788 21.2501 20.625 21.2501H9.375C9.02125 21.2501 8.75 20.9789 8.75 20.6251V12.5001C8.75 12.1464 9.02125 11.8751 9.375 11.8751ZM19.0625 15.6251C18.8139 15.6251 18.5754 15.7239 18.3996 15.8997C18.2238 16.0755 18.125 16.314 18.125 16.5626C18.125 16.8113 18.2238 17.0497 18.3996 17.2255C18.5754 17.4014 18.8139 17.5001 19.0625 17.5001C19.3111 17.5001 19.5496 17.4014 19.7254 17.2255C19.9012 17.0497 20 16.8113 20 16.5626C20 16.314 19.9012 16.0755 19.7254 15.8997C19.5496 15.7239 19.3111 15.6251 19.0625 15.6251Z" fill="white"/>
</svg>
