<svg width="30" height="30" viewBox="0 0 30 30" fill="none" xmlns="http://www.w3.org/2000/svg">
<rect width="30" height="30" rx="15" fill="#FD2285"/>
<g clip-path="url(#clip0_814_1012)">
<path fill-rule="evenodd" clip-rule="evenodd" d="M14.5282 9.20403C14.2655 9.5467 13.9695 10.076 13.5388 10.848L13.3208 11.2394L13.2815 11.31C13.0815 11.67 12.9115 11.9754 12.6388 12.182C12.3635 12.3914 12.0275 12.4667 11.6368 12.5547L11.5608 12.572L11.1368 12.668C10.3002 12.8574 9.73015 12.9874 9.34082 13.1414C8.96015 13.2907 8.88015 13.414 8.84949 13.512C8.81682 13.616 8.81615 13.7754 9.04282 14.1367C9.27415 14.5034 9.66415 14.9607 10.2335 15.6274L10.5228 15.9654L10.5728 16.0234C10.8415 16.3367 11.0655 16.598 11.1682 16.9287C11.2702 17.2574 11.2362 17.602 11.1948 18.0207L11.1882 18.0987L11.1442 18.55C11.0575 19.438 11.0002 20.05 11.0195 20.49C11.0395 20.93 11.1322 21.0514 11.2062 21.1074C11.2715 21.1574 11.3928 21.212 11.7882 21.0987C12.1902 20.984 12.7248 20.7394 13.5082 20.3787L13.9055 20.196L13.9782 20.1627C14.3415 19.994 14.6562 19.8487 15.0002 19.8487C15.3442 19.8487 15.6588 19.994 16.0222 20.162C16.0457 20.1736 16.0702 20.1847 16.0955 20.1954L16.4922 20.3787C17.2755 20.7394 17.8102 20.984 18.2122 21.0987C18.6075 21.212 18.7288 21.1574 18.7942 21.1074C18.8682 21.0514 18.9608 20.9294 18.9808 20.49C19.0008 20.05 18.9422 19.438 18.8562 18.55L18.8122 18.0987L18.8055 18.0207C18.7642 17.602 18.7302 17.2574 18.8322 16.9287C18.9348 16.598 19.1588 16.3367 19.4275 16.0234L19.4775 15.9654L19.7668 15.6274C20.3362 14.9607 20.7262 14.5034 20.9568 14.1367C21.1842 13.7754 21.1835 13.6167 21.1508 13.512C21.1202 13.414 21.0402 13.2907 20.6595 13.1414C20.2695 12.9874 19.7002 12.8574 18.8635 12.668L18.4395 12.572L18.3635 12.5547C17.9728 12.4667 17.6368 12.3914 17.3615 12.182C17.0882 11.9754 16.9195 11.6707 16.7188 11.31L16.6802 11.2394L16.4615 10.848C16.0308 10.076 15.7348 9.5467 15.4722 9.20403C15.2095 8.86136 15.0762 8.83203 15.0002 8.83203C14.9242 8.83203 14.7902 8.86136 14.5282 9.20403ZM13.7348 8.59603C14.0515 8.18136 14.4442 7.83203 15.0002 7.83203C15.5562 7.83203 15.9482 8.18136 16.2662 8.59603C16.5782 9.00403 16.9095 9.59803 17.3142 10.324L17.5535 10.7527C17.8148 11.222 17.8822 11.322 17.9662 11.386C18.0462 11.4467 18.1508 11.4814 18.6595 11.5967L19.1262 11.702C19.9102 11.8794 20.5562 12.0254 21.0262 12.2107C21.5142 12.4034 21.9415 12.6867 22.1062 13.2154C22.2688 13.7387 22.0862 14.22 21.8035 14.6687C21.5288 15.1054 21.0902 15.6187 20.5542 16.2454L20.2375 16.6154C19.8928 17.018 19.8208 17.1167 19.7868 17.2254C19.7528 17.3367 19.7555 17.4654 19.8082 18.002L19.8555 18.494C19.9368 19.3314 20.0028 20.014 19.9795 20.534C19.9562 21.064 19.8362 21.572 19.3995 21.904C18.9542 22.2414 18.4362 22.204 17.9362 22.06C17.4515 21.9214 16.8475 21.6434 16.1142 21.3054L15.6768 21.104C15.1982 20.884 15.0962 20.8487 15.0002 20.8487C14.9042 20.8487 14.8022 20.884 14.3235 21.104L13.8868 21.3054C13.1528 21.6434 12.5488 21.9214 12.0642 22.06C11.5642 22.2034 11.0462 22.2414 10.6015 21.904C10.1642 21.572 10.0442 21.064 10.0208 20.5347C9.99749 20.0147 10.0635 19.3314 10.1448 18.4947L10.1928 18.002C10.2448 17.4647 10.2475 17.3367 10.2128 17.2254C10.1795 17.1167 10.1075 17.0187 9.76282 16.6154L9.44615 16.2454C8.91082 15.6187 8.47215 15.1054 8.19749 14.6694C7.91415 14.22 7.73149 13.7387 7.89415 13.2154C8.05882 12.6867 8.48615 12.4034 8.97415 12.2107C9.44415 12.0254 10.0902 11.8794 10.8742 11.702L10.9162 11.6927L11.3402 11.5967C11.8495 11.4814 11.9535 11.4467 12.0342 11.3854C12.1182 11.322 12.1855 11.222 12.4475 10.7527L12.6862 10.324C13.0908 9.59736 13.4222 9.00403 13.7342 8.59603" fill="white"/>
</g>
<defs>
<clipPath id="clip0_814_1012">
<rect width="16" height="16" fill="white" transform="translate(7 7)"/>
</clipPath>
</defs>
</svg>
