<svg width="2" height="11" viewBox="0 0 2 11" fill="none" xmlns="http://www.w3.org/2000/svg">
<path d="M5.38895e-07 1C5.38895e-07 0.802219 0.0586496 0.60888 0.168531 0.44443C0.278412 0.279981 0.434591 0.151809 0.617317 0.0761209C0.800043 0.000433281 1.00111 -0.0193701 1.19509 0.0192152C1.38907 0.0578004 1.56725 0.153041 1.70711 0.292894C1.84696 0.432746 1.9422 0.610929 1.98079 0.80491C2.01937 0.998891 1.99957 1.19996 1.92388 1.38268C1.84819 1.56541 1.72002 1.72159 1.55557 1.83147C1.39112 1.94135 1.19778 2 1 2C0.734784 2 0.48043 1.89464 0.292894 1.70711C0.105358 1.51957 5.38895e-07 1.26522 5.38895e-07 1ZM1 4.25C0.802219 4.25 0.60888 4.30865 0.44443 4.41853C0.279981 4.52841 0.151809 4.68459 0.0761209 4.86732C0.000433281 5.05004 -0.0193701 5.25111 0.0192152 5.44509C0.0578004 5.63907 0.153041 5.81725 0.292894 5.95711C0.432746 6.09696 0.610929 6.1922 0.80491 6.23079C0.998891 6.26937 1.19996 6.24957 1.38268 6.17388C1.56541 6.09819 1.72159 5.97002 1.83147 5.80557C1.94135 5.64112 2 5.44778 2 5.25C2 4.98478 1.89464 4.73043 1.70711 4.54289C1.51957 4.35536 1.26522 4.25 1 4.25ZM1 8.5C0.802219 8.5 0.60888 8.55865 0.44443 8.66853C0.279981 8.77841 0.151809 8.93459 0.0761209 9.11732C0.000433281 9.30004 -0.0193701 9.50111 0.0192152 9.69509C0.0578004 9.88907 0.153041 10.0673 0.292894 10.2071C0.432746 10.347 0.610929 10.4422 0.80491 10.4808C0.998891 10.5194 1.19996 10.4996 1.38268 10.4239C1.56541 10.3482 1.72159 10.22 1.83147 10.0556C1.94135 9.89112 2 9.69778 2 9.5C2 9.23478 1.89464 8.98043 1.70711 8.79289C1.51957 8.60536 1.26522 8.5 1 8.5Z" fill="black"/>
</svg>
