<svg width="21" height="18" viewBox="0 0 21 18" fill="none" xmlns="http://www.w3.org/2000/svg">
<path d="M0.836853 0.116211C-0.195374 0.65625 -0.291077 2.03027 0.652283 2.7002L0.953064 2.90527H10.2363H19.5195L19.8203 2.7002C20.7431 2.04395 20.6611 0.642578 19.663 0.136719C19.4101 0 19.2255 0 10.2226 0C1.99896 0.00683594 1.02142 0.0136719 0.836853 0.116211Z" fill="white"/>
<path d="M6.78418 7.35551C6.20996 7.56742 5.86133 8.09379 5.86133 8.75004C5.86133 9.4473 6.27148 10.0079 6.91406 10.1787C7.11914 10.2403 8.88965 10.2539 13.3125 10.2403C20.0459 10.2198 19.5879 10.2471 20.0391 9.80277C20.3535 9.48832 20.4492 9.23539 20.4561 8.75004C20.4561 8.16898 20.2236 7.74516 19.752 7.47172L19.4307 7.28031L13.2441 7.26664C7.95996 7.25297 7.0166 7.26664 6.78418 7.35551Z" fill="white"/>
<path d="M0.939437 14.6362C-0.0244299 15.0258 -0.318375 16.3793 0.41307 17.0698C0.898422 17.5346 0.112289 17.5004 10.2363 17.5004C19.2187 17.5004 19.4101 17.5004 19.6631 17.3637C20.6611 16.8578 20.7431 15.4565 19.8203 14.8002L19.5195 14.5951L10.3183 14.5815C4.35741 14.5746 1.04881 14.5951 0.939437 14.6362Z" fill="white"/>
</svg>
