<svg width="323" height="39" viewBox="0 0 323 39" fill="none" xmlns="http://www.w3.org/2000/svg">
<path d="M8.27148 30L0.695312 4.08984H4.5625L8.48242 18.3984L10.1172 24.7969H10.293L16.4277 6.7793H17.9395L24.0742 24.7969H24.2148L25.8496 18.3984L29.8047 4.08984H33.6367L26.0781 30H22.791L17.2363 14.7246H17.0957L11.541 30H8.27148ZM43.2695 30.2812C41.4531 30.2812 39.8477 29.8828 38.4531 29.0859C37.0703 28.2773 35.9863 27.1523 35.2012 25.7109C34.416 24.2578 34.0234 22.5645 34.0234 20.6309C34.0234 18.6738 34.4102 16.9805 35.1836 15.5508C35.957 14.1211 37.0059 13.0137 38.3301 12.2285C39.6543 11.4316 41.1309 11.0332 42.7598 11.0332C44.3535 11.0332 45.7715 11.3965 47.0137 12.123C48.2676 12.8496 49.2578 13.8633 49.9844 15.1641C50.7109 16.4531 51.0742 17.9473 51.0742 19.6465C51.0742 20.1152 51.0449 20.5488 50.9863 20.9473C50.9395 21.334 50.8867 21.6738 50.8281 21.9668H36.7305V19.2598H47.6465C47.6465 18.3223 47.4473 17.4727 47.0488 16.7109C46.6504 15.9375 46.082 15.3281 45.3438 14.8828C44.6172 14.4258 43.7559 14.1973 42.7598 14.1973C41.6934 14.1973 40.7559 14.4668 39.9473 15.0059C39.1387 15.5332 38.5059 16.2773 38.0488 17.2383C37.6035 18.1992 37.3809 19.3184 37.3809 20.5957C37.3809 21.8965 37.6211 23.0391 38.1016 24.0234C38.582 24.9961 39.2676 25.7578 40.1582 26.3086C41.0488 26.8477 42.1035 27.1172 43.3223 27.1172C44.0254 27.1172 44.6816 27.0293 45.291 26.8535C45.9004 26.6777 46.4453 26.4551 46.9258 26.1855C47.4062 25.9043 47.8164 25.623 48.1562 25.3418L49.457 28.418C48.7305 28.9336 47.8281 29.373 46.75 29.7363C45.6836 30.0996 44.5234 30.2812 43.2695 30.2812ZM59.793 30.2812C58.6094 30.2812 57.5488 30.0527 56.6113 29.5957C55.6738 29.127 54.9355 28.4707 54.3965 27.627C53.8574 26.7832 53.5879 25.793 53.5879 24.6562C53.5879 23.4609 53.9102 22.4297 54.5547 21.5625C55.2109 20.6953 56.166 20.0332 57.4199 19.5762C58.6738 19.1191 60.1973 18.8906 61.9902 18.8906H65.9629V21.5449H62.1484C60.5312 21.5449 59.2773 21.8086 58.3867 22.3359C57.5078 22.8516 57.0684 23.6074 57.0684 24.6035C57.0684 25.1777 57.2148 25.6699 57.5078 26.0801C57.8008 26.4785 58.1934 26.7891 58.6855 27.0117C59.1895 27.2227 59.752 27.3281 60.373 27.3281C61.0645 27.3281 61.7969 27.1758 62.5703 26.8711C63.3438 26.5664 64.0059 26.1094 64.5566 25.5C65.1074 24.8789 65.3828 24.1113 65.3828 23.1973V21.2637L65.2246 20.2266V18.0469C65.2246 17.707 65.1895 17.3203 65.1191 16.8867C65.0605 16.4414 64.9082 16.0195 64.6621 15.6211C64.4277 15.2109 64.0586 14.8711 63.5547 14.6016C63.0508 14.332 62.3652 14.1973 61.498 14.1973C60.9238 14.1973 60.3027 14.2676 59.6348 14.4082C58.9785 14.5488 58.3398 14.7422 57.7188 14.9883C57.1094 15.2344 56.5703 15.5156 56.1016 15.832L54.8184 12.8086C55.3926 12.4688 56.0664 12.1641 56.8398 11.8945C57.6133 11.6133 58.4336 11.3965 59.3008 11.2441C60.168 11.0918 61.0352 11.0156 61.9023 11.0156C63.3086 11.0156 64.4512 11.2148 65.3301 11.6133C66.2207 12.0117 66.9062 12.5508 67.3867 13.2305C67.8672 13.9102 68.1953 14.6602 68.3711 15.4805C68.5586 16.3008 68.6523 17.1328 68.6523 17.9766V24.3047C68.6523 25.0664 68.7344 25.6641 68.8984 26.0977C69.0625 26.5195 69.3613 26.8125 69.7949 26.9766L70.1641 27.1172L68.8281 30.2812L68.3184 30.0703C67.5449 29.7539 66.9238 29.3262 66.4551 28.7871C65.9863 28.248 65.7402 27.709 65.7168 27.1699L66.4023 27.5039H65.1367L65.998 27.0117C65.5527 27.9023 64.7734 28.6699 63.6602 29.3145C62.5586 29.959 61.2695 30.2812 59.793 30.2812ZM77.6875 30.2812C76.7617 30.2812 76 30.0879 75.4023 29.7012C74.8047 29.3027 74.3594 28.7402 74.0664 28.0137C73.7734 27.2754 73.627 26.4082 73.627 25.4121V2.92969H77.2129V25.2891C77.2129 25.5352 77.2363 25.7988 77.2832 26.0801C77.3301 26.3496 77.4473 26.584 77.6348 26.7832C77.8223 26.9707 78.127 27.0645 78.5488 27.0645C78.7012 27.0645 78.8418 27.0527 78.9707 27.0293C79.1113 26.9941 79.2461 26.959 79.375 26.9238V30.0176C79.1641 30.0996 78.9062 30.1641 78.6016 30.2109C78.3086 30.2578 78.0039 30.2812 77.6875 30.2812ZM89.834 30.2812C87.959 30.2812 86.5469 29.748 85.5977 28.6816C84.6484 27.6035 84.1738 26.2266 84.1738 24.5508V5.42578H87.7598V24.252C87.7598 25.1777 87.9707 25.875 88.3926 26.3438C88.8262 26.8008 89.377 27.0293 90.0449 27.0293C90.3379 27.0293 90.6074 26.9883 90.8535 26.9062C91.0996 26.8242 91.3281 26.7305 91.5391 26.625L92.8223 29.6484C92.4238 29.8242 91.9785 29.9707 91.4863 30.0879C91.0059 30.2168 90.4551 30.2812 89.834 30.2812ZM81.0801 14.4082V11.2969H92.3125V14.4082H81.0801ZM95.9512 30V2.92969H99.5371V13.3535H100.293L98.8164 14.8652C99.0977 14.0449 99.543 13.3477 100.152 12.7734C100.773 12.1992 101.512 11.7656 102.367 11.4727C103.223 11.1797 104.148 11.0332 105.145 11.0332C106.703 11.0332 107.963 11.373 108.924 12.0527C109.896 12.7207 110.605 13.582 111.051 14.6367C111.496 15.6914 111.719 16.793 111.719 17.9414V30H108.133V18.7148C108.133 17.2266 107.752 16.1074 106.99 15.3574C106.24 14.6074 105.244 14.2324 104.002 14.2324C103.17 14.2324 102.414 14.4023 101.734 14.7422C101.066 15.0703 100.533 15.5684 100.135 16.2363C99.7363 16.9043 99.5371 17.7305 99.5371 18.7148V30H95.9512Z" fill="white"/>
<path d="M117.186 30V4.08984H119.295L128.277 21.457H128.453L137.418 4.08984H139.545V30H137.242V13.8809L137.295 8.85352H137.154L128.84 25.0605H127.891L119.576 8.85352H119.436L119.471 13.8809V30H117.186ZM150.514 30.2812C149.4 30.2812 148.393 30.0586 147.49 29.6133C146.588 29.1562 145.873 28.5234 145.346 27.7148C144.818 26.8945 144.555 25.9395 144.555 24.8496C144.555 23.666 144.889 22.6465 145.557 21.791C146.236 20.9355 147.227 20.2793 148.527 19.8223C149.828 19.3535 151.404 19.1191 153.256 19.1191H156.947V20.9121H153.379C151.211 20.9121 149.553 21.2695 148.404 21.9844C147.268 22.6992 146.699 23.6543 146.699 24.8496C146.699 25.541 146.875 26.1562 147.227 26.6953C147.59 27.2227 148.076 27.6387 148.686 27.9434C149.307 28.2363 149.986 28.3828 150.725 28.3828C151.615 28.3828 152.5 28.1719 153.379 27.75C154.258 27.3164 154.99 26.7246 155.576 25.9746C156.174 25.2246 156.473 24.3691 156.473 23.4082V20.8594L156.42 20.1738V17.9941C156.42 17.4668 156.373 16.9219 156.279 16.3594C156.197 15.7969 156.01 15.2754 155.717 14.7949C155.436 14.3145 155.008 13.9277 154.434 13.6348C153.859 13.3418 153.08 13.1953 152.096 13.1953C151.545 13.1953 150.936 13.2715 150.268 13.4238C149.611 13.5762 148.961 13.7871 148.316 14.0566C147.684 14.3262 147.133 14.6309 146.664 14.9707L145.785 13.0723C146.348 12.6973 146.998 12.3691 147.736 12.0879C148.475 11.7949 149.242 11.5664 150.039 11.4023C150.836 11.2383 151.586 11.1562 152.289 11.1562C153.531 11.1562 154.551 11.3379 155.348 11.7012C156.156 12.0645 156.789 12.5625 157.246 13.1953C157.715 13.8281 158.043 14.5605 158.23 15.3926C158.43 16.2246 158.529 17.1035 158.529 18.0293V25.1484C158.529 25.9805 158.635 26.6484 158.846 27.1523C159.068 27.6445 159.396 27.9961 159.83 28.207L160.094 28.2949L159.25 30.2812L158.811 30.0703C158.178 29.7773 157.668 29.3555 157.281 28.8047C156.895 28.2539 156.678 27.6445 156.631 26.9766L157.035 27.1699H156.191L156.754 26.8184C156.238 27.7559 155.436 28.5703 154.346 29.2617C153.256 29.9414 151.979 30.2812 150.514 30.2812ZM164.33 30V11.4551H166.51V14.1094H167.143L166.07 15.1816C166.387 14.373 166.85 13.6699 167.459 13.0723C168.08 12.4629 168.818 11.9941 169.674 11.666C170.529 11.3379 171.473 11.1738 172.504 11.1738C173.957 11.1738 175.158 11.4844 176.107 12.1055C177.068 12.7148 177.783 13.541 178.252 14.584C178.732 15.627 178.973 16.7871 178.973 18.0645V30H176.793V18.5566C176.793 16.7754 176.365 15.4395 175.51 14.5488C174.666 13.6465 173.506 13.1953 172.029 13.1953C170.986 13.1953 170.049 13.4238 169.217 13.8809C168.385 14.3262 167.723 14.9473 167.23 15.7441C166.75 16.5293 166.51 17.4434 166.51 18.4863V30H164.33ZM189.221 30.2812C188.107 30.2812 187.1 30.0586 186.197 29.6133C185.295 29.1562 184.58 28.5234 184.053 27.7148C183.525 26.8945 183.262 25.9395 183.262 24.8496C183.262 23.666 183.596 22.6465 184.264 21.791C184.943 20.9355 185.934 20.2793 187.234 19.8223C188.535 19.3535 190.111 19.1191 191.963 19.1191H195.654V20.9121H192.086C189.918 20.9121 188.26 21.2695 187.111 21.9844C185.975 22.6992 185.406 23.6543 185.406 24.8496C185.406 25.541 185.582 26.1562 185.934 26.6953C186.297 27.2227 186.783 27.6387 187.393 27.9434C188.014 28.2363 188.693 28.3828 189.432 28.3828C190.322 28.3828 191.207 28.1719 192.086 27.75C192.965 27.3164 193.697 26.7246 194.283 25.9746C194.881 25.2246 195.18 24.3691 195.18 23.4082V20.8594L195.127 20.1738V17.9941C195.127 17.4668 195.08 16.9219 194.986 16.3594C194.904 15.7969 194.717 15.2754 194.424 14.7949C194.143 14.3145 193.715 13.9277 193.141 13.6348C192.566 13.3418 191.787 13.1953 190.803 13.1953C190.252 13.1953 189.643 13.2715 188.975 13.4238C188.318 13.5762 187.668 13.7871 187.023 14.0566C186.391 14.3262 185.84 14.6309 185.371 14.9707L184.492 13.0723C185.055 12.6973 185.705 12.3691 186.443 12.0879C187.182 11.7949 187.949 11.5664 188.746 11.4023C189.543 11.2383 190.293 11.1562 190.996 11.1562C192.238 11.1562 193.258 11.3379 194.055 11.7012C194.863 12.0645 195.496 12.5625 195.953 13.1953C196.422 13.8281 196.75 14.5605 196.938 15.3926C197.137 16.2246 197.236 17.1035 197.236 18.0293V25.1484C197.236 25.9805 197.342 26.6484 197.553 27.1523C197.775 27.6445 198.104 27.9961 198.537 28.207L198.801 28.2949L197.957 30.2812L197.518 30.0703C196.885 29.7773 196.375 29.3555 195.988 28.8047C195.602 28.2539 195.385 27.6445 195.338 26.9766L195.742 27.1699H194.898L195.461 26.8184C194.945 27.7559 194.143 28.5703 193.053 29.2617C191.963 29.9414 190.686 30.2812 189.221 30.2812ZM210.314 37.6641C209.084 37.6641 207.865 37.4824 206.658 37.1191C205.451 36.7559 204.49 36.3164 203.775 35.8008L204.619 33.832C205.264 34.3477 206.09 34.7812 207.098 35.1328C208.117 35.4961 209.166 35.6777 210.244 35.6777C211.322 35.6777 212.348 35.4609 213.32 35.0273C214.305 34.6055 215.102 33.9551 215.711 33.0762C216.32 32.1973 216.625 31.0781 216.625 29.7188V26.6777H216.238L216.713 25.2715V15.8672L216.133 14.4258H216.572V11.4551H218.752V29.6309C218.752 31.0723 218.5 32.3027 217.996 33.3223C217.504 34.3418 216.842 35.168 216.01 35.8008C215.189 36.4336 214.281 36.9023 213.285 37.207C212.289 37.5117 211.299 37.6641 210.314 37.6641ZM210.174 30.1582C209.014 30.1582 207.936 29.9414 206.939 29.5078C205.943 29.0625 205.07 28.4238 204.32 27.5918C203.57 26.7598 202.984 25.7578 202.562 24.5859C202.141 23.4023 201.93 22.0723 201.93 20.5957C201.93 18.627 202.293 16.9395 203.02 15.5332C203.746 14.127 204.736 13.0488 205.99 12.2988C207.256 11.5488 208.674 11.1738 210.244 11.1738C211.756 11.1738 213.115 11.543 214.322 12.2812C215.541 13.0195 216.502 14.0859 217.205 15.4805C217.92 16.875 218.277 18.5684 218.277 20.5605C218.277 22.5527 217.914 24.2695 217.188 25.7109C216.461 27.1406 215.482 28.2422 214.252 29.0156C213.033 29.7773 211.674 30.1582 210.174 30.1582ZM210.402 28.1191C211.633 28.1191 212.717 27.7969 213.654 27.1523C214.604 26.4961 215.348 25.5938 215.887 24.4453C216.426 23.2969 216.695 21.9727 216.695 20.4727C216.695 18.9961 216.426 17.7129 215.887 16.623C215.348 15.5332 214.604 14.6895 213.654 14.0918C212.717 13.4941 211.633 13.1953 210.402 13.1953C209.148 13.1953 208.047 13.5059 207.098 14.127C206.148 14.748 205.416 15.6152 204.9 16.7285C204.385 17.8418 204.127 19.1309 204.127 20.5957C204.127 22.0957 204.396 23.4141 204.936 24.5508C205.486 25.6758 206.23 26.5547 207.168 27.1875C208.117 27.8086 209.195 28.1191 210.402 28.1191ZM231.777 30.2812C230.066 30.2812 228.555 29.8887 227.242 29.1035C225.941 28.3066 224.922 27.1934 224.184 25.7637C223.457 24.334 223.094 22.6523 223.094 20.7188C223.094 18.7969 223.451 17.1211 224.166 15.6914C224.893 14.2617 225.889 13.1543 227.154 12.3691C228.42 11.5723 229.861 11.1738 231.479 11.1738C233.119 11.1738 234.543 11.5605 235.75 12.334C236.957 13.0957 237.889 14.1211 238.545 15.4102C239.201 16.6875 239.529 18.0996 239.529 19.6465C239.529 19.9863 239.512 20.3379 239.477 20.7012C239.453 21.0527 239.424 21.3223 239.389 21.5098H224.781V19.6465H237.367C237.379 18.4512 237.139 17.3672 236.646 16.3945C236.166 15.4219 235.486 14.6484 234.607 14.0742C233.74 13.5 232.709 13.2129 231.514 13.2129C230.307 13.2129 229.229 13.5176 228.279 14.127C227.33 14.7246 226.58 15.5859 226.029 16.7109C225.479 17.8242 225.203 19.1543 225.203 20.7012C225.203 22.2363 225.479 23.5664 226.029 24.6914C226.58 25.8164 227.348 26.6895 228.332 27.3105C229.328 27.9316 230.471 28.2422 231.76 28.2422C232.568 28.2422 233.312 28.1367 233.992 27.9258C234.672 27.7031 235.275 27.4336 235.803 27.1172C236.342 26.7891 236.787 26.4609 237.139 26.1328L238.018 28.1719C237.291 28.7578 236.389 29.2559 235.311 29.666C234.244 30.0762 233.066 30.2812 231.777 30.2812ZM243.836 30V11.4551H246.016V13.8457H246.455L245.488 15.0762C245.969 13.7988 246.713 12.832 247.721 12.1758C248.74 11.5078 249.877 11.1738 251.131 11.1738C252.525 11.1738 253.709 11.5312 254.682 12.2461C255.666 12.9492 256.334 13.9043 256.686 15.1113L255.631 14.127H257.09L255.877 15.1113C256.357 13.8105 257.172 12.832 258.32 12.1758C259.469 11.5078 260.705 11.1738 262.029 11.1738C263.002 11.1738 263.869 11.3379 264.631 11.666C265.393 11.9824 266.043 12.4336 266.582 13.0195C267.121 13.5938 267.531 14.2734 267.812 15.0586C268.094 15.8438 268.234 16.6992 268.234 17.625V30H266.055V17.9941C266.055 16.4355 265.65 15.252 264.842 14.4434C264.033 13.623 263.002 13.2129 261.748 13.2129C260.928 13.2129 260.166 13.3945 259.463 13.7578C258.76 14.1094 258.191 14.6426 257.758 15.3574C257.324 16.0605 257.107 16.9395 257.107 17.9941V30H254.928V17.9941C254.928 16.4355 254.518 15.252 253.697 14.4434C252.877 13.623 251.84 13.2129 250.586 13.2129C249.344 13.2129 248.271 13.6582 247.369 14.5488C246.467 15.4277 246.016 16.6934 246.016 18.3457V30H243.836ZM280.961 30.2812C279.25 30.2812 277.738 29.8887 276.426 29.1035C275.125 28.3066 274.105 27.1934 273.367 25.7637C272.641 24.334 272.277 22.6523 272.277 20.7188C272.277 18.7969 272.635 17.1211 273.35 15.6914C274.076 14.2617 275.072 13.1543 276.338 12.3691C277.604 11.5723 279.045 11.1738 280.662 11.1738C282.303 11.1738 283.727 11.5605 284.934 12.334C286.141 13.0957 287.072 14.1211 287.729 15.4102C288.385 16.6875 288.713 18.0996 288.713 19.6465C288.713 19.9863 288.695 20.3379 288.66 20.7012C288.637 21.0527 288.607 21.3223 288.572 21.5098H273.965V19.6465H286.551C286.562 18.4512 286.322 17.3672 285.83 16.3945C285.35 15.4219 284.67 14.6484 283.791 14.0742C282.924 13.5 281.893 13.2129 280.697 13.2129C279.49 13.2129 278.412 13.5176 277.463 14.127C276.514 14.7246 275.764 15.5859 275.213 16.7109C274.662 17.8242 274.387 19.1543 274.387 20.7012C274.387 22.2363 274.662 23.5664 275.213 24.6914C275.764 25.8164 276.531 26.6895 277.516 27.3105C278.512 27.9316 279.654 28.2422 280.943 28.2422C281.752 28.2422 282.496 28.1367 283.176 27.9258C283.855 27.7031 284.459 27.4336 284.986 27.1172C285.525 26.7891 285.971 26.4609 286.322 26.1328L287.201 28.1719C286.475 28.7578 285.572 29.2559 284.494 29.666C283.428 30.0762 282.25 30.2812 280.961 30.2812ZM293.002 30V11.4551H295.182V14.1094H295.814L294.742 15.1816C295.059 14.373 295.521 13.6699 296.131 13.0723C296.752 12.4629 297.49 11.9941 298.346 11.666C299.201 11.3379 300.145 11.1738 301.176 11.1738C302.629 11.1738 303.83 11.4844 304.779 12.1055C305.74 12.7148 306.455 13.541 306.924 14.584C307.404 15.627 307.645 16.7871 307.645 18.0645V30H305.465V18.5566C305.465 16.7754 305.037 15.4395 304.182 14.5488C303.338 13.6465 302.178 13.1953 300.701 13.1953C299.658 13.1953 298.721 13.4238 297.889 13.8809C297.057 14.3262 296.395 14.9473 295.902 15.7441C295.422 16.5293 295.182 17.4434 295.182 18.4863V30H293.002ZM319.053 30.2461C317.412 30.2461 316.182 29.7598 315.361 28.7871C314.541 27.8027 314.131 26.502 314.131 24.8848V5.26758H316.311V24.8145C316.311 25.8809 316.551 26.7188 317.031 27.3281C317.512 27.9258 318.197 28.2246 319.088 28.2246C319.346 28.2246 319.609 28.1895 319.879 28.1191C320.148 28.0488 320.389 27.9609 320.6 27.8555L321.461 29.7715C321.109 29.9121 320.74 30.0234 320.354 30.1055C319.967 30.1992 319.533 30.2461 319.053 30.2461ZM311.072 13.4414V11.4551H321.092V13.4414H311.072Z" fill="#9DBDFF"/>
</svg>
