<svg width="25" height="25" viewBox="0 0 25 25" fill="none" xmlns="http://www.w3.org/2000/svg">
<g clip-path="url(#clip0_1566_1688)">
<path d="M0 9.375H25V14.8438H0V9.375Z" fill="#E6E7E8"/>
<path d="M21.0938 3.51562H3.90625C1.31758 3.51562 0 5.43945 0 7.8125V9.375H25V7.8125C25 5.43945 23.6824 3.51562 21.0938 3.51562Z" fill="#FF9933"/>
<path d="M0 16.4062C0 18.7793 1.31758 20.7031 3.90625 20.7031H21.0938C23.6824 20.7031 25 18.7793 25 16.4062V14.8438H0V16.4062Z" fill="#128807"/>
<path fill-rule="evenodd" clip-rule="evenodd" d="M12.6203 9.60254C13.1194 9.60254 13.6073 9.75059 14.0222 10.028C14.4372 10.3053 14.7605 10.6995 14.9513 11.1607C15.1421 11.6219 15.1919 12.1293 15.0942 12.6188C14.9966 13.1082 14.7559 13.5577 14.4027 13.9104C14.0495 14.263 13.5997 14.503 13.1101 14.5999C12.6205 14.6968 12.1131 14.6462 11.6522 14.4547C11.1913 14.2632 10.7976 13.9392 10.5209 13.5239C10.2442 13.1085 10.0969 12.6204 10.0977 12.1213C10.0989 11.453 10.3652 10.8125 10.8381 10.3403C11.3111 9.86805 11.952 9.60274 12.6203 9.60254ZM10.9387 10.6943C10.982 10.7436 10.9898 10.7963 10.9609 10.8404C10.9488 10.8608 10.9298 10.8763 10.9074 10.8842C10.8903 10.8906 10.8718 10.8927 10.8536 10.8904C10.8355 10.8881 10.8181 10.8814 10.8031 10.8709C10.7353 10.9681 10.6755 11.0708 10.6246 11.1779C10.6836 11.2166 10.7031 11.265 10.6836 11.3186C10.6731 11.3458 10.6525 11.3679 10.626 11.3801C10.5995 11.3924 10.5693 11.3938 10.5418 11.3842C10.5137 11.4404 10.4516 11.6779 10.4508 11.7279C10.4765 11.7334 10.4996 11.7473 10.5164 11.7674C10.5338 11.7878 10.5427 11.8141 10.5414 11.8408C10.534 11.9143 10.4887 11.9455 10.4195 11.9482C10.4086 12.0189 10.4098 12.2557 10.4207 12.3021C10.4936 12.31 10.5331 12.3419 10.5391 12.3979C10.5477 12.458 10.5188 12.4971 10.4484 12.5244C10.4693 12.6406 10.4995 12.7545 10.5391 12.8662C10.5666 12.858 10.5961 12.859 10.6231 12.8689C10.6492 12.8803 10.6699 12.8998 10.6809 12.9268C10.6905 12.9476 10.6927 12.9696 10.6875 12.9928C10.6838 13.0099 10.6762 13.0259 10.6653 13.0396C10.6544 13.0533 10.6405 13.0643 10.6246 13.0717C10.677 13.1803 10.7348 13.2826 10.8031 13.3787C10.8641 13.3486 10.9172 13.3557 10.9531 13.3986C10.9688 13.4164 10.9778 13.439 10.9785 13.4627C10.9796 13.4802 10.9765 13.4977 10.9695 13.5137C10.9624 13.5298 10.9516 13.5439 10.9379 13.5549C11.0158 13.646 11.0997 13.73 11.1898 13.8068C11.241 13.7619 11.2941 13.7549 11.3398 13.7869C11.3607 13.8015 11.3746 13.8205 11.3816 13.8439C11.3863 13.8605 11.3873 13.878 11.3844 13.895C11.3816 13.912 11.375 13.9282 11.3652 13.9424C11.4639 14.0101 11.5664 14.0692 11.6727 14.1197C11.7143 14.0614 11.7609 14.042 11.8125 14.0615C11.8348 14.0695 11.8541 14.0841 11.868 14.1033C11.887 14.1346 11.8906 14.1687 11.8789 14.2057C11.9914 14.2455 12.1047 14.276 12.2219 14.2967C12.2449 14.2307 12.2848 14.1998 12.3379 14.2037C12.3625 14.2057 12.3848 14.2131 12.4043 14.2299C12.4316 14.2549 12.4443 14.2868 12.4422 14.3256C12.562 14.3344 12.6802 14.3344 12.7969 14.3256C12.8055 14.2502 12.8355 14.2123 12.8961 14.2037C12.9191 14.2004 12.9425 14.2051 12.9625 14.217C12.9771 14.2253 12.9896 14.2368 12.9992 14.2506C13.0088 14.2644 13.0152 14.2801 13.018 14.2967C13.1359 14.2751 13.2503 14.2446 13.3609 14.2053C13.3512 14.1314 13.3691 14.0873 13.4188 14.0643C13.4368 14.0565 13.4566 14.0534 13.4762 14.0553C13.4967 14.0566 13.5146 14.0636 13.5297 14.0764C13.5441 14.0885 13.5563 14.1033 13.5703 14.1186C13.6768 14.0683 13.779 14.0094 13.8758 13.9424C13.8359 13.8799 13.8594 13.8201 13.8918 13.7936C13.9031 13.7839 13.9162 13.7765 13.9304 13.772C13.9446 13.7674 13.9595 13.7657 13.9744 13.767C13.9892 13.7682 14.0036 13.7725 14.0168 13.7794C14.03 13.7863 14.0417 13.7957 14.0512 13.8072C14.1414 13.7299 14.2262 13.6459 14.302 13.5557C14.2578 13.5053 14.2492 13.4521 14.2816 13.4064C14.2949 13.3861 14.315 13.3711 14.3383 13.3643C14.3549 13.3589 14.3726 13.3575 14.3899 13.3602C14.4072 13.3628 14.4236 13.3694 14.4379 13.3795C14.5061 13.2813 14.5656 13.1788 14.6164 13.0721C14.5591 13.0338 14.5389 12.989 14.5559 12.9377C14.5622 12.915 14.5759 12.895 14.5949 12.8811C14.61 12.8703 14.6274 12.8633 14.6458 12.8606C14.6641 12.8578 14.6828 12.8595 14.7004 12.8654C14.7258 12.8104 14.7891 12.5783 14.7926 12.5221C14.7656 12.517 14.7413 12.5026 14.7238 12.4814C14.7148 12.4709 14.708 12.4586 14.7039 12.4452C14.6998 12.4319 14.6985 12.4179 14.7 12.4041C14.7016 12.3794 14.7118 12.356 14.7289 12.3381C14.7408 12.3259 14.7552 12.3164 14.7711 12.3103C14.787 12.3043 14.8041 12.3017 14.8211 12.3029C14.8309 12.1848 14.8309 12.066 14.8211 11.9479C14.7465 11.9404 14.7109 11.9115 14.7012 11.8525C14.6969 11.8302 14.7002 11.8071 14.7105 11.7869C14.7186 11.7713 14.7302 11.7578 14.7443 11.7474C14.7585 11.737 14.7749 11.7301 14.7922 11.7271C14.7717 11.6104 14.7413 11.4957 14.7012 11.3842C14.6289 11.3963 14.5844 11.3768 14.5606 11.3268C14.5544 11.3134 14.5509 11.2989 14.5504 11.2842C14.5498 11.2695 14.5522 11.2548 14.5574 11.241C14.5626 11.2272 14.5705 11.2146 14.5807 11.2039C14.5908 11.1932 14.6029 11.1847 14.6164 11.1787C14.5658 11.0713 14.5061 10.9685 14.4379 10.8713C14.375 10.9014 14.3238 10.8943 14.2879 10.8514C14.272 10.8332 14.2632 10.8099 14.2629 10.7857C14.2621 10.7686 14.2654 10.7514 14.2724 10.7358C14.2795 10.7201 14.2901 10.7063 14.3035 10.6955C14.2263 10.6053 14.1423 10.5211 14.0523 10.4436C13.9984 10.4896 13.9461 10.4955 13.9016 10.4635C13.8813 10.4501 13.8664 10.4298 13.8598 10.4064C13.855 10.39 13.854 10.3728 13.8568 10.3559C13.8597 10.3391 13.8663 10.3231 13.8762 10.3092C13.7788 10.2413 13.676 10.1816 13.5688 10.1307C13.5286 10.188 13.4831 10.2079 13.432 10.1904C13.4095 10.1829 13.3897 10.1688 13.3754 10.1498C13.3651 10.1346 13.3585 10.1171 13.3562 10.0989C13.3539 10.0806 13.3559 10.0621 13.3621 10.0447C13.2508 10.004 13.136 9.97358 13.0191 9.95371C12.9969 10.017 12.9566 10.0498 12.9047 10.0467C12.8805 10.0454 12.8573 10.0367 12.8383 10.0217C12.8244 10.0099 12.8136 9.99493 12.8067 9.97807C12.7998 9.9612 12.7971 9.94293 12.7988 9.9248C12.6808 9.91479 12.5621 9.91492 12.4441 9.9252C12.4358 9.99577 12.4056 10.0355 12.3535 10.0443C12.3302 10.0494 12.3058 10.0464 12.2844 10.0357C12.2685 10.0278 12.2546 10.0161 12.2441 10.0018C12.2335 9.9875 12.2264 9.97088 12.2234 9.95332C12.1067 9.97456 11.9919 10.0053 11.8801 10.0451C11.8926 10.1143 11.873 10.1596 11.8254 10.1842C11.8048 10.1951 11.7826 10.1986 11.7586 10.1947C11.7404 10.1923 11.7231 10.1851 11.7085 10.174C11.6939 10.1628 11.6825 10.148 11.6754 10.1311C11.6086 10.1561 11.3961 10.2791 11.368 10.31C11.3969 10.3678 11.3902 10.4189 11.3504 10.4557C11.3391 10.4656 11.326 10.4732 11.3117 10.478C11.2975 10.4827 11.2824 10.4846 11.2675 10.4834C11.2525 10.4822 11.2379 10.4781 11.2246 10.4712C11.2112 10.4643 11.1994 10.4547 11.1898 10.4432C11.0999 10.5204 11.0159 10.6044 10.9387 10.6943Z" fill="#010088"/>
<path fill-rule="evenodd" clip-rule="evenodd" d="M13.7027 13.9948C13.698 13.9897 13.6934 13.9862 13.6898 13.9808C13.4627 13.6336 13.235 13.2869 13.0066 12.9405L12.991 12.9101C12.9379 12.7862 12.8859 12.6624 12.8316 12.539C12.83 12.5326 12.8275 12.5264 12.8242 12.5206C12.8023 12.5288 12.7824 12.5382 12.759 12.5472L12.7668 12.5671C12.8156 12.687 12.8625 12.8073 12.9121 12.9272C12.9254 12.9593 12.9309 12.9929 12.9379 13.0265C12.9762 13.2058 13.0121 13.3858 13.0508 13.5655L13.1828 14.2073C13.1837 14.2088 13.184 14.2105 13.1838 14.2122C13.1836 14.2139 13.1828 14.2155 13.1816 14.2167L13.1762 14.203C13.0691 13.8753 12.9594 13.5479 12.852 13.2202C12.8305 13.1562 12.8113 13.0929 12.7879 13.0288C12.777 12.9968 12.7734 12.964 12.7684 12.9308C12.7547 12.8378 12.743 12.744 12.7277 12.6511C12.7254 12.6289 12.7225 12.6071 12.7191 12.5854L12.7148 12.5589C12.6914 12.5612 12.6699 12.5644 12.6465 12.5671C12.6465 12.5765 12.647 12.5861 12.648 12.596C12.6617 12.7104 12.6734 12.8253 12.6898 12.9394C12.6984 13.0019 12.6941 13.0632 12.6906 13.1257L12.6824 13.2843C12.6754 13.3913 12.6699 13.4979 12.6625 13.6046L12.6508 13.8249L12.6297 14.1987C12.6266 14.2339 12.6258 14.2698 12.6223 14.3042L12.6129 14.1858L12.6008 13.9296L12.5867 13.7011C12.5826 13.6229 12.5781 13.545 12.5734 13.4671L12.5648 13.3144L12.5516 13.0726C12.5476 13.0299 12.5486 12.9869 12.5547 12.9444C12.5625 12.8864 12.5697 12.8279 12.5762 12.769C12.5837 12.711 12.5909 12.6533 12.5977 12.596L12.5996 12.5671L12.5313 12.5581C12.5289 12.5737 12.5262 12.5892 12.523 12.6046L12.473 12.9624C12.4684 13.0089 12.45 13.0519 12.4344 13.0952C12.3141 13.4619 12.1931 13.8283 12.0715 14.1944C12.0688 14.2011 12.0676 14.2073 12.0625 14.2136C12.0622 14.2091 12.0629 14.205 12.0645 14.2011C12.1147 13.9539 12.1659 13.7069 12.218 13.4601L12.3195 12.9687L12.3289 12.9417C12.3793 12.8179 12.4277 12.6929 12.4793 12.569C12.4812 12.5618 12.4838 12.5547 12.4871 12.5479L12.4223 12.521C12.4195 12.528 12.4152 12.5339 12.4129 12.5409L12.2523 12.914C12.249 12.9233 12.2449 12.9324 12.2398 12.9409C12.0093 13.2901 11.7795 13.6397 11.5504 13.9897C11.5475 13.9952 11.5433 13.9999 11.5383 14.0034L11.5461 13.9866L12.1109 12.8667C12.1159 12.8566 12.1219 12.847 12.1289 12.8382L12.3703 12.5144C12.3754 12.5089 12.3785 12.5038 12.3832 12.4979C12.3633 12.4835 12.3473 12.4702 12.3273 12.455C12.3229 12.4599 12.319 12.4647 12.3156 12.4694C12.2313 12.5757 12.1479 12.6817 12.0656 12.7874C12.0568 12.7973 12.0473 12.8069 12.0371 12.8163C11.7293 13.0917 11.4215 13.3655 11.1125 13.6413C11.1065 13.6468 11.0997 13.6515 11.0922 13.6554L11.1 13.6448C11.3531 13.3618 11.6056 13.0787 11.8574 12.7956C11.872 12.78 11.8862 12.764 11.9 12.7476C11.9289 12.7142 11.9611 12.6843 11.9965 12.6577L12.277 12.437C12.2832 12.4323 12.2879 12.4272 12.2949 12.4226L12.252 12.3675L12.2348 12.3796L11.9121 12.6206C11.8998 12.6293 11.887 12.6372 11.8738 12.6444C11.507 12.8296 11.1383 13.0147 10.7707 13.1999C10.7637 13.203 10.757 13.2069 10.7488 13.2069L10.7637 13.1964L11.4496 12.7472C11.5694 12.6688 11.6888 12.5901 11.8078 12.5112L11.8375 12.4956C11.9622 12.4427 12.0863 12.3897 12.2098 12.3366C12.2155 12.3345 12.2217 12.3318 12.2285 12.3284L12.2023 12.264C12.1949 12.2659 12.1902 12.2679 12.1844 12.2698C12.0578 12.3202 11.9324 12.3714 11.8051 12.4214C11.7789 12.4312 11.7504 12.4358 11.7227 12.4417L10.8691 12.619C10.7617 12.6421 10.6523 12.6647 10.5445 12.687C10.5402 12.688 10.5356 12.6874 10.5316 12.6854C10.5613 12.6758 10.5909 12.6659 10.6203 12.6558C10.9891 12.5344 11.3573 12.4128 11.725 12.2909C11.7539 12.2812 11.7848 12.2784 11.8141 12.2737L12.1688 12.2233L12.1902 12.2187L12.1824 12.1499L12.1254 12.1562L11.8895 12.1847L11.7582 12.2007C11.7478 12.202 11.7375 12.2024 11.7273 12.2019L11.4789 12.1874L11.332 12.1792L11.0789 12.1644L10.7098 12.144C10.6207 12.1394 10.534 12.1335 10.4453 12.1272C10.4594 12.1261 10.475 12.1237 10.4902 12.1237L10.793 12.1065L11.193 12.0839L11.5242 12.0651L11.732 12.0526C11.7409 12.0526 11.7496 12.0532 11.7582 12.0542L11.9965 12.0827L12.1652 12.103H12.1824C12.1844 12.0808 12.1879 12.0597 12.1902 12.0354C12.1758 12.0323 12.1594 12.03 12.1449 12.0272C12.0408 12.0127 11.9367 11.9977 11.8328 11.9823L11.768 11.9737C11.756 11.9721 11.7443 11.9693 11.7328 11.9655C11.4223 11.8636 11.1137 11.7608 10.8035 11.6589L10.5449 11.5729C10.5376 11.5707 10.5306 11.5674 10.5242 11.5632L10.5785 11.5741L11.2414 11.712C11.4188 11.7491 11.5988 11.7858 11.7762 11.8233L11.8074 11.8331C11.9324 11.8823 12.0563 11.9331 12.1824 11.9831L12.2012 11.9905C12.2098 11.9694 12.2189 11.9479 12.2285 11.9261C12.2221 11.9224 12.2155 11.9191 12.2086 11.9163C12.0844 11.8637 11.9604 11.8106 11.8367 11.7569L11.8086 11.7425C11.4582 11.5132 11.1094 11.2827 10.7586 11.053C10.7539 11.0506 10.7502 11.0466 10.748 11.0417L10.7621 11.0495C11.1113 11.2253 11.4609 11.4009 11.8109 11.5765C11.8688 11.6054 11.925 11.6401 11.9766 11.6796C12.0617 11.7456 12.1484 11.8089 12.2352 11.8737L12.2523 11.8858L12.2953 11.8315L12.2801 11.8183L11.9625 11.5687C11.9521 11.5601 11.9424 11.5511 11.9336 11.5417C11.6568 11.2318 11.3803 10.9219 11.1043 10.612C11.1005 10.6086 11.0975 10.6045 11.0953 10.5999C11.1035 10.6007 11.1066 10.6062 11.1102 10.6097C11.2773 10.7581 11.444 10.9065 11.6102 11.055L12.0406 11.4386C12.0484 11.4461 12.0559 11.4539 12.0629 11.462L12.3094 11.7753C12.3156 11.7823 12.3203 11.7897 12.3273 11.7991L12.384 11.7558C12.3805 11.7503 12.3758 11.746 12.373 11.7409C12.2928 11.6334 12.2122 11.5259 12.1313 11.4187C12.1228 11.4061 12.1151 11.393 12.1082 11.3796C11.921 11.0098 11.7344 10.64 11.5484 10.2702C11.5449 10.2632 11.5414 10.2577 11.5406 10.2503L11.55 10.2612L11.9492 10.8714L12.2316 11.3011C12.2414 11.3175 12.2523 11.3347 12.2586 11.3526C12.3109 11.4729 12.3625 11.5934 12.4133 11.714C12.4164 11.7192 12.4195 11.7253 12.4227 11.7323L12.4875 11.7054L12.4805 11.689C12.432 11.5671 12.3833 11.4455 12.3344 11.3241C12.3207 11.2933 12.3156 11.2612 12.309 11.2292C12.2664 11.0257 12.2254 10.8218 12.1828 10.6179C12.141 10.4218 12.1012 10.2272 12.0602 10.0304C12.0596 10.0296 12.0602 10.0274 12.0617 10.0237L12.0961 10.128C12.2187 10.4965 12.3402 10.8654 12.4605 11.2347C12.4707 11.2636 12.4742 11.2952 12.4785 11.3253C12.4926 11.4279 12.5077 11.5308 12.5238 11.6339C12.5266 11.6534 12.5277 11.6729 12.5316 11.6944L12.5996 11.6858V11.6601L12.5699 11.4151C12.5641 11.3675 12.5598 11.321 12.5531 11.2745C12.5493 11.2432 12.5493 11.2116 12.5531 11.1804L12.5621 11.0218L12.5813 10.7034C12.5848 10.6464 12.5859 10.5886 12.5895 10.5315C12.5944 10.4571 12.5988 10.3823 12.6027 10.3073C12.6061 10.2526 12.609 10.1979 12.6113 10.1433C12.6147 10.0789 12.6193 10.0147 12.625 9.95068C12.6263 9.96813 12.6273 9.98623 12.6281 10.005C12.6333 10.0834 12.638 10.162 12.6422 10.2409L12.6625 10.5987L12.6746 10.7995L12.693 11.1479L12.6969 11.1991C12.702 11.2444 12.693 11.2894 12.6891 11.3343L12.6641 11.539C12.6602 11.5776 12.6543 11.6163 12.6496 11.6554C12.6488 11.6647 12.6488 11.6749 12.6461 11.6862C12.6703 11.6897 12.6922 11.6921 12.7164 11.6952C12.7199 11.6784 12.7215 11.6628 12.7242 11.6464C12.743 11.5196 12.7612 11.3923 12.7789 11.2647C12.7805 11.2554 12.7844 11.2456 12.7867 11.2358C12.9141 10.8538 13.0391 10.4714 13.1656 10.0886C13.1719 10.071 13.1766 10.0542 13.1863 10.0374L13.182 10.064C13.125 10.3405 13.0656 10.6163 13.009 10.8921C12.9835 11.0215 12.957 11.1509 12.9297 11.2804C12.9278 11.2911 12.9243 11.3015 12.9195 11.3112L12.7687 11.6882C12.7661 11.6934 12.7637 11.6995 12.7613 11.7065C12.7848 11.7155 12.8039 11.7245 12.8266 11.7335L12.8355 11.7147L12.993 11.3448C12.9992 11.3323 13.0039 11.3202 13.0121 11.3101L13.6937 10.2702C13.698 10.2647 13.7016 10.2593 13.7082 10.2554C13.7059 10.2608 13.7031 10.2663 13.7 10.2718L13.1395 11.3851C13.1337 11.3957 13.1275 11.4059 13.1207 11.4155L12.8777 11.7394L12.8648 11.7569L12.9203 11.8003L12.9324 11.7854C13.015 11.68 13.098 11.5744 13.1816 11.4687C13.1908 11.4567 13.2012 11.4458 13.2125 11.4358C13.5211 11.1601 13.8299 10.8847 14.1391 10.6097C14.1441 10.6054 14.1477 10.6011 14.1559 10.5987L14.1457 10.6112C14.0199 10.7537 13.8931 10.8957 13.7652 11.0374C13.6134 11.2072 13.4621 11.377 13.3113 11.5468C13.303 11.5554 13.2945 11.5631 13.2859 11.5698L12.9684 11.8194L12.9527 11.8319C12.9676 11.8507 12.9809 11.8687 12.9965 11.8874L13.0133 11.8749L13.3387 11.6312L13.3645 11.6147C13.7389 11.4267 14.1124 11.2387 14.4848 11.0507C14.4905 11.0476 14.4965 11.0459 14.5027 11.0456C14.4861 11.0568 14.4693 11.0677 14.4523 11.0784L13.4398 11.7429C13.4307 11.7486 13.4214 11.7537 13.4117 11.7581C13.2871 11.812 13.1613 11.8651 13.0379 11.9187L13.018 11.9265C13.0285 11.9483 13.0359 11.969 13.0453 11.9909L13.0633 11.9851C13.1887 11.9354 13.3133 11.8835 13.4398 11.8354C13.4711 11.8229 13.5055 11.8175 13.5395 11.8104L14.1148 11.6909C14.2937 11.6542 14.4711 11.6167 14.6504 11.5796C14.6663 11.5759 14.6826 11.5726 14.6992 11.5694C14.7035 11.5694 14.7074 11.5687 14.7137 11.571L14.659 11.589C14.2777 11.7153 13.8965 11.8408 13.5152 11.9655C13.4863 11.9757 13.4543 11.9784 13.4242 11.9831L13.1711 12.0194L13.0801 12.0323L13.0578 12.0362C13.0602 12.0593 13.0637 12.0808 13.0652 12.1058L13.1242 12.0995L13.3352 12.0745C13.3879 12.0679 13.443 12.0604 13.498 12.0554C13.5227 12.0534 13.5477 12.0558 13.573 12.0569C13.6266 12.0593 13.6801 12.064 13.7359 12.0663L14.0516 12.0851L14.1938 12.0929L14.5156 12.1112C14.5918 12.1159 14.6703 12.1194 14.7461 12.1241C14.7649 12.1251 14.7837 12.1268 14.8023 12.1292L14.7453 12.1339L14.509 12.1468L14.2164 12.164L13.9957 12.1757C13.8941 12.1819 13.7906 12.1878 13.6883 12.1944C13.632 12.1968 13.5742 12.2022 13.5176 12.2026C13.4852 12.2034 13.4512 12.1972 13.4195 12.1937L13.2113 12.1687L13.0781 12.1526H13.0652C13.0632 12.175 13.0607 12.1979 13.0578 12.2214L13.4711 12.2812C13.5117 12.2862 13.5473 12.3022 13.5855 12.3144L14.6965 12.6812C14.7038 12.6822 14.7108 12.6853 14.7164 12.6901C14.7073 12.6886 14.698 12.6873 14.6887 12.6862L13.7238 12.4851L13.4691 12.4319C13.4609 12.4296 13.45 12.4265 13.441 12.4222C13.3158 12.3724 13.19 12.3222 13.0637 12.2714L13.0469 12.2655L13.0184 12.3292L13.0391 12.339C13.1635 12.3918 13.2876 12.445 13.4113 12.4983C13.421 12.5025 13.4309 12.508 13.441 12.5147L14.4809 13.196C14.4859 13.1999 14.4926 13.2046 14.4969 13.212C14.4914 13.2094 14.4863 13.2067 14.4816 13.2038L13.9398 12.9319C13.7505 12.8361 13.5603 12.7403 13.3691 12.6444C13.3569 12.6385 13.3455 12.631 13.3352 12.6222L13.0117 12.3808L12.9965 12.3698C12.9816 12.3878 12.9684 12.4054 12.9527 12.4241L12.9676 12.4358C13.0723 12.5194 13.1789 12.603 13.284 12.6862C13.2959 12.6949 13.3068 12.7048 13.3164 12.7159L14.1441 13.6421C14.1478 13.6465 14.1505 13.6517 14.152 13.6573C14.1477 13.6526 14.1418 13.6495 14.1375 13.646C13.8268 13.3687 13.5159 13.0916 13.2047 12.8147C13.1976 12.8085 13.1913 12.8014 13.1859 12.7937L12.9328 12.471C12.9292 12.466 12.9251 12.4611 12.9207 12.4562C12.9027 12.471 12.8852 12.4843 12.8672 12.4999C12.869 12.5048 12.8717 12.5097 12.8754 12.5144L13.1211 12.8417C13.1278 12.8514 13.1341 12.8615 13.1398 12.8718L13.698 13.9815C13.7012 13.9865 13.7032 13.9921 13.7039 13.9979H13.7027V13.9948Z" fill="#010088"/>
<path fill-rule="evenodd" clip-rule="evenodd" d="M13.6992 13.9946L13.7086 14.0063C13.7066 14.0071 13.7066 14.0083 13.7043 14.0087C13.7035 14.0032 13.7008 13.9997 13.7 13.9946H13.6992Z" fill="#010088"/>
</g>
<defs>
<clipPath id="clip0_1566_1688">
<rect width="25" height="25" fill="white"/>
</clipPath>
</defs>
</svg>
